<svg width="589" height="228" viewBox="0 0 589 228" fill="none" xmlns="http://www.w3.org/2000/svg">
<g clip-path="url(#clip0_1_16)">
<path d="M33.32 128L44.37 100.96L11.74 31.8H36.05L55.68 73.27L72.45 31.8H96.24L57.11 128H33.32ZM135.561 128L131.791 116.43H101.761L97.8609 128H74.5909L107.091 32.58H127.891L158.701 128H135.561ZM109.301 94.46H124.771L117.231 71.32L109.301 94.46ZM217.201 32.58H239.171V128H215.381L184.181 72.36V128H162.211V32.84H186.131L217.201 88.35V32.58ZM329.831 74.57V128H307.731V125.66C305.304 126.527 302.791 127.177 300.191 127.61C297.677 127.957 295.164 128.13 292.651 128.13C286.497 128.13 280.474 126.96 274.581 124.62C268.687 122.28 263.401 118.77 258.721 114.09C254.041 109.41 250.531 104.167 248.191 98.36C245.937 92.4667 244.811 86.4433 244.811 80.29C244.811 74.1367 245.937 68.1133 248.191 62.22C250.531 56.3267 254.041 51.04 258.721 46.36C263.401 41.68 268.687 38.17 274.581 35.83C280.474 33.49 286.497 32.32 292.651 32.32C298.804 32.32 304.827 33.49 310.721 35.83C316.614 38.17 321.901 41.68 326.581 46.36L310.981 61.96C308.467 59.4467 305.607 57.5833 302.401 56.37C299.194 55.07 295.944 54.42 292.651 54.42C289.357 54.42 286.107 55.07 282.901 56.37C279.694 57.5833 276.834 59.4467 274.321 61.96C271.807 64.4733 269.901 67.3333 268.601 70.54C267.301 73.7467 266.651 76.9967 266.651 80.29C266.651 83.5833 267.301 86.8333 268.601 90.04C269.901 93.2467 271.807 96.1067 274.321 98.62C276.574 100.873 279.087 102.65 281.861 103.95C284.721 105.163 287.624 105.9 290.571 106.16C293.604 106.333 296.594 106.03 299.541 105.25C302.487 104.47 305.217 103.17 307.731 101.35V96.54H288.621V74.57H329.831ZM379.849 127.87C373.696 127.87 367.673 126.743 361.779 124.49C355.973 122.15 350.729 118.64 346.049 113.96C341.543 109.367 338.076 104.21 335.649 98.49C333.309 92.6833 332.139 86.5733 332.139 80.16C332.139 73.66 333.309 67.55 335.649 61.83C338.076 56.0233 341.543 50.8667 346.049 46.36C350.729 41.68 356.016 38.17 361.909 35.83C367.803 33.49 373.783 32.32 379.849 32.32C386.003 32.32 391.983 33.49 397.789 35.83C403.683 38.17 408.969 41.68 413.649 46.36L398.179 61.83C395.666 59.3167 392.806 57.4533 389.599 56.24C386.393 54.94 383.143 54.29 379.849 54.29C376.556 54.29 373.306 54.94 370.099 56.24C366.979 57.4533 364.163 59.3167 361.649 61.83C359.223 64.3433 357.359 67.16 356.059 70.28C354.759 73.4 354.109 76.6933 354.109 80.16C354.109 83.6267 354.759 86.92 356.059 90.04C357.359 93.0733 359.223 95.8467 361.649 98.36C364.163 100.873 366.979 102.78 370.099 104.08C373.306 105.293 376.556 105.9 379.849 105.9C383.143 105.9 386.393 105.293 389.599 104.08C392.806 102.78 395.666 100.873 398.179 98.36L413.649 113.96C408.969 118.64 403.726 122.15 397.919 124.49C392.113 126.743 386.089 127.87 379.849 127.87ZM480.14 54.55H440.88V68.98H472.73V90.95H440.88V106.03H480.14V128H418.91V32.71L480.14 32.58V54.55ZM569.358 128H493.178L533.088 53.9H498.378V31.8L569.878 31.93L529.968 106.03H569.358V128Z" fill="white"/>
<g filter="url(#filter0_d_1_16)">
<path d="M114 124.3C112.8 123.167 112.633 121.733 113.5 120C113.7 119.667 113.833 119.367 113.9 119.1C114.033 118.767 114.033 118.567 113.9 118.5C113.633 118.3 112.5 118.567 110.5 119.3C108.5 120.033 106.233 121 103.7 122.2C99.5 124.333 95.6333 126.633 92.1 129.1C88.6333 131.5 86.0333 133.8 84.3 136C82.6333 137.933 81.8 139.467 81.8 140.6C81.8 141.733 82.6667 142.867 84.4 144C85.0667 144.467 86 145 87.2 145.6C88.4667 146.133 89.8667 146.7 91.4 147.3C93 147.9 94.7 148.533 96.5 149.2C98.3 149.8 100.133 150.333 102 150.8C106.333 152.067 110.167 153.467 113.5 155C116.833 156.467 119.267 157.867 120.8 159.2C122.067 160.467 123 161.733 123.6 163C124.267 164.2 124.667 165.633 124.8 167.3C125.267 171.9 123.933 176.267 120.8 180.4C117.733 184.467 112.733 188.5 105.8 192.5C103.8 193.633 101.567 194.767 99.1 195.9C96.6333 197.1 94.1 198.233 91.5 199.3C88.9 200.367 86.3 201.333 83.7 202.2C81.1 203.067 78.7 203.8 76.5 204.4C75.3 204.733 73.9667 205 72.5 205.2C71.1 205.4 69.7 205.533 68.3 205.6C66.9 205.733 65.6 205.767 64.4 205.7C63.2 205.7 62.2667 205.6 61.6 205.4C58.1333 204.533 56.4 202.967 56.4 200.7C56.4 199.9 56.7 199.3 57.3 198.9C57.8333 198.5 58.3667 198.3 58.9 198.3C59.5 198.367 60.2667 198.633 61.2 199.1C62.2667 199.7 63.9667 199.9 66.3 199.7C68.6333 199.5 71.3 199 74.3 198.2C77.3 197.467 80.5 196.467 83.9 195.2C87.3667 193.933 90.7667 192.533 94.1 191C97.4333 189.4 100.6 187.733 103.6 186C106.6 184.267 109.167 182.5 111.3 180.7C115.967 176.767 118.3 172.633 118.3 168.3C118.3 166.9 118.1 165.733 117.7 164.8C117.3 163.867 116.3 162.933 114.7 162C113.1 161.067 110.733 160.067 107.6 159C104.533 157.933 100.3 156.533 94.9 154.8C91.1667 153.667 87.8 152.367 84.8 150.9C81.8 149.367 79.6667 147.967 78.4 146.7C75.9333 144.167 74.9 141.533 75.3 138.8C75.7667 136.067 77.7 133 81.1 129.6C83.1667 127.533 85.6333 125.5 88.5 123.5C91.4333 121.5 94.4333 119.667 97.5 118C100.633 116.333 103.7 114.967 106.7 113.9C109.7 112.767 112.3 112.1 114.5 111.9C115.567 111.767 116.333 111.733 116.8 111.8C117.333 111.867 117.967 112.067 118.7 112.4C121.967 113.933 122.433 116.933 120.1 121.4C119.7 122.2 119.267 122.933 118.8 123.6C118.333 124.267 118.033 124.667 117.9 124.8C117.367 125.2 116.7 125.367 115.9 125.3C115.167 125.167 114.533 124.833 114 124.3ZM173.766 113.1C176.032 112.7 178.032 112.367 179.766 112.1C181.566 111.833 183.166 111.633 184.566 111.5C185.966 111.3 187.266 111.133 188.466 111C189.666 110.867 190.899 110.733 192.166 110.6C195.366 110.267 198.632 110.033 201.966 109.9C205.299 109.7 208.399 109.6 211.266 109.6C214.132 109.6 216.599 109.667 218.666 109.8C220.799 109.933 222.266 110.167 223.066 110.5C224.532 111.167 225.399 112.167 225.666 113.5C225.932 114.767 225.532 115.9 224.466 116.9C223.066 118.167 221.632 118.067 220.166 116.6L219.166 115.5L211.666 115.6C209.332 115.6 206.732 115.667 203.866 115.8C201.066 115.933 198.332 116.133 195.666 116.4C193.066 116.6 190.666 116.833 188.466 117.1C186.332 117.367 184.832 117.633 183.966 117.9C182.832 118.233 180.632 123.967 177.366 135.1C176.566 137.9 175.566 141.667 174.366 146.4C173.232 151.067 172.032 156.033 170.766 161.3C169.566 166.5 168.399 171.6 167.266 176.6C166.199 181.6 165.366 185.8 164.766 189.2C164.632 190.133 164.432 191.3 164.166 192.7C163.899 194.033 163.699 195.167 163.566 196.1C163.366 197.033 163.199 198.2 163.066 199.6C162.999 201 162.932 202.2 162.866 203.2C162.866 204.933 162.799 206 162.666 206.4C162.599 206.8 162.332 207.133 161.866 207.4C161.332 207.8 160.799 208 160.266 208C159.799 208 159.199 207.733 158.466 207.2C157.666 206.733 157.132 205.967 156.866 204.9C156.666 203.9 156.699 202.233 156.966 199.9C157.099 198.033 157.332 195.9 157.666 193.5C157.999 191.033 158.466 188.1 159.066 184.7C159.732 181.233 160.566 177.167 161.566 172.5C162.632 167.767 163.899 162.2 165.366 155.8C166.099 152.4 166.932 148.833 167.866 145.1C168.866 141.3 169.832 137.733 170.766 134.4C171.699 131 172.566 128 173.366 125.4C174.232 122.8 174.932 120.933 175.466 119.8C175.599 119.467 175.599 119.267 175.466 119.2C175.332 119.133 174.832 119.167 173.966 119.3C171.699 119.633 169.232 120.033 166.566 120.5C163.899 120.967 161.199 121.533 158.466 122.2C155.799 122.8 153.132 123.467 150.466 124.2C147.866 124.867 145.466 125.567 143.266 126.3C140.732 127.1 138.899 127.8 137.766 128.4C136.699 128.933 136.166 129.4 136.166 129.8C136.099 130.2 135.766 130.6 135.166 131C134.632 131.333 134.066 131.5 133.466 131.5C133.266 131.5 132.966 131.433 132.566 131.3C132.166 131.1 131.799 130.833 131.466 130.5C130.999 129.967 130.666 129.567 130.466 129.3C130.332 128.967 130.299 128.5 130.366 127.9C130.432 127.033 130.766 126.233 131.366 125.5C131.966 124.767 132.899 124.067 134.166 123.4C135.499 122.667 137.199 121.933 139.266 121.2C141.332 120.467 143.899 119.667 146.966 118.8C148.899 118.267 150.832 117.767 152.766 117.3C154.699 116.767 156.732 116.3 158.866 115.9C160.999 115.433 163.266 114.967 165.666 114.5C168.132 114.033 170.832 113.567 173.766 113.1ZM198.021 130.2C196.888 133.6 195.854 136.9 194.921 140.1C193.988 143.3 193.154 146.467 192.421 149.6C191.688 152.733 190.988 155.9 190.321 159.1C189.721 162.233 189.188 165.467 188.721 168.8C188.454 170.733 188.254 172.867 188.121 175.2C187.988 177.533 187.888 179.8 187.821 182C187.821 184.2 187.854 186.2 187.921 188C188.054 189.733 188.254 191 188.521 191.8C189.054 193.733 189.788 194.9 190.721 195.3C191.721 195.767 193.088 195.6 194.821 194.8C196.554 194 198.788 191.9 201.521 188.5C204.254 185.1 207.121 180.9 210.121 175.9C211.321 173.833 212.688 171.3 214.221 168.3C215.754 165.233 217.554 161.467 219.621 157C221.688 152.467 224.088 147.1 226.821 140.9C229.621 134.633 232.888 127.2 236.621 118.6C237.354 117 238.054 115.467 238.721 114C239.388 112.533 239.988 111.233 240.521 110.1C241.054 108.967 241.488 108.067 241.821 107.4C242.221 106.667 242.488 106.233 242.621 106.1C243.488 105.167 244.521 104.933 245.721 105.4C246.988 105.8 247.788 106.667 248.121 108C248.321 108.4 247.554 111.367 245.821 116.9C244.354 121.3 242.988 125.533 241.721 129.6C240.521 133.667 239.388 137.6 238.321 141.4C237.254 145.2 236.288 148.967 235.421 152.7C234.554 156.367 233.754 160.033 233.021 163.7C232.421 166.7 231.921 169.4 231.521 171.8C231.121 174.2 230.754 176.5 230.421 178.7C230.154 180.9 229.921 183.1 229.721 185.3C229.521 187.5 229.321 189.933 229.121 192.6L228.721 198.6L229.721 199.9C230.321 200.833 230.621 201.533 230.621 202C230.621 202.467 230.288 203.067 229.621 203.8C228.154 205.4 226.521 205.667 224.721 204.6C224.254 204.333 223.854 204 223.521 203.6C223.254 203.2 223.054 202.633 222.921 201.9C222.788 201.233 222.688 200.333 222.621 199.2C222.554 198.067 222.521 196.6 222.521 194.8C222.588 189.8 222.888 184.767 223.421 179.7C224.021 174.633 224.988 168.867 226.321 162.4C226.654 160.667 226.921 159.2 227.121 158C227.388 156.8 227.488 156.167 227.421 156.1C227.021 156.833 226.621 157.633 226.221 158.5C225.888 159.233 225.454 160.133 224.921 161.2C224.454 162.2 223.954 163.267 223.421 164.4C218.821 174.267 214.354 182.3 210.021 188.5C205.754 194.633 201.921 198.567 198.521 200.3C193.654 202.633 189.488 202.3 186.021 199.3C185.021 198.367 184.188 197.333 183.521 196.2C182.854 195.067 182.254 193.6 181.721 191.8C181.521 190.933 181.354 189.6 181.221 187.8C181.088 185.933 181.021 183.9 181.021 181.7C181.021 179.5 181.088 177.267 181.221 175C181.354 172.667 181.521 170.6 181.721 168.8C182.388 164 183.288 158.967 184.421 153.7C185.554 148.433 186.788 143.333 188.121 138.4C189.521 133.4 190.954 128.767 192.421 124.5C193.954 120.233 195.454 116.667 196.921 113.8C197.921 111.867 198.788 110.5 199.521 109.7C200.321 108.9 201.154 108.5 202.021 108.5C202.821 108.5 203.521 108.667 204.121 109C204.721 109.333 205.154 109.767 205.421 110.3C205.688 110.833 205.754 111.433 205.621 112.1C205.554 112.767 205.254 113.4 204.721 114C204.321 114.467 203.888 115.1 203.421 115.9C203.021 116.7 202.554 117.733 202.021 119C201.488 120.267 200.888 121.833 200.221 123.7C199.554 125.5 198.821 127.667 198.021 130.2ZM250.763 201.5C251.029 201.567 251.496 201.6 252.163 201.6C252.896 201.667 253.629 201.667 254.363 201.6L257.063 201.4L256.763 200C256.563 199.2 256.496 198.133 256.562 196.8C256.629 195.533 256.796 193.767 257.063 191.5C257.396 189.233 257.863 186.367 258.463 182.9C259.129 179.433 259.963 175.133 260.963 170C263.763 156 266.363 144.633 268.763 135.9C271.163 127.167 273.263 121.367 275.063 118.5L275.863 117.1L274.863 117.4C273.596 117.667 272.363 118.067 271.163 118.6C269.963 119.133 269.096 119.667 268.563 120.2C266.963 121.6 265.496 121.567 264.163 120.1C262.963 118.967 262.829 117.633 263.763 116.1C264.229 115.367 264.929 114.7 265.863 114.1C266.796 113.5 268.129 112.933 269.863 112.4C271.996 111.667 274.196 111.1 276.463 110.7C278.796 110.3 281.096 110.1 283.363 110.1C284.096 110.1 284.829 110.1 285.563 110.1C286.363 110.1 287.129 110.167 287.863 110.3C292.329 110.833 296.063 111.767 299.063 113.1C302.129 114.433 304.863 116.4 307.263 119C311.796 123.8 314.596 129.633 315.663 136.5C316.796 143.3 316.096 150.5 313.563 158.1C309.496 170.433 303.196 180.867 294.663 189.4C287.263 196.8 279.463 201.9 271.263 204.7C269.463 205.3 267.429 205.833 265.163 206.3C262.963 206.767 260.796 207.1 258.663 207.3C256.596 207.567 254.696 207.7 252.963 207.7C251.296 207.767 250.063 207.667 249.263 207.4C248.396 207 247.663 206.5 247.063 205.9C246.463 205.367 246.096 204.733 245.963 204C245.829 203.6 245.796 203.267 245.863 203C245.996 202.733 246.229 202.4 246.563 202C247.096 201.533 247.729 201.233 248.463 201.1C249.196 201.033 249.963 201.167 250.763 201.5ZM263.063 200.3L264.063 200.1C264.396 199.967 264.929 199.8 265.663 199.6C266.396 199.467 267.163 199.233 267.963 198.9C270.096 198.233 272.429 197.233 274.963 195.9C277.496 194.633 279.729 193.267 281.663 191.8C282.996 190.8 284.429 189.6 285.963 188.2C287.496 186.8 288.996 185.367 290.463 183.9C291.929 182.367 293.296 180.833 294.562 179.3C295.896 177.767 296.963 176.367 297.763 175.1C298.963 173.3 300.129 171.333 301.263 169.2C302.463 167 303.529 164.8 304.463 162.6C305.463 160.4 306.329 158.233 307.063 156.1C307.863 153.9 308.463 151.867 308.863 150C309.129 148.933 309.296 147.667 309.363 146.2C309.496 144.733 309.563 143.267 309.563 141.8C309.563 140.267 309.496 138.833 309.363 137.5C309.229 136.1 309.029 134.9 308.763 133.9C307.963 131.033 306.696 128.3 304.963 125.7C303.229 123.1 301.329 121.133 299.263 119.8C298.463 119.267 297.463 118.8 296.263 118.4C295.129 117.933 293.863 117.533 292.463 117.2C291.129 116.867 289.729 116.6 288.263 116.4C286.863 116.2 285.496 116.1 284.163 116.1H281.963L279.263 116.4L280.563 117.7C281.163 118.233 281.596 118.833 281.863 119.5C282.129 120.167 282.229 120.833 282.163 121.5C282.163 122.1 281.996 122.7 281.663 123.3C281.329 123.833 280.863 124.233 280.263 124.5C279.863 124.767 279.496 125.167 279.163 125.7C278.896 126.233 278.496 127.333 277.963 129C277.096 131.667 276.129 135.067 275.063 139.2C273.996 143.267 272.896 147.633 271.763 152.3C270.696 156.967 269.629 161.733 268.563 166.6C267.563 171.467 266.629 176 265.763 180.2C264.963 184.4 264.296 188.1 263.763 191.3C263.296 194.5 263.063 196.733 263.063 198V200.3ZM343.73 143.4C344.196 141.733 344.763 139.867 345.43 137.8C346.096 135.733 346.763 133.7 347.43 131.7C348.163 129.633 348.83 127.667 349.43 125.8C350.096 123.933 350.696 122.4 351.23 121.2C351.363 120.733 351.496 120.333 351.63 120C351.83 119.6 351.996 119.233 352.13 118.9C352.263 118.567 352.363 118.233 352.43 117.9C352.363 117.833 352.063 117.833 351.53 117.9C350.996 117.967 350.363 118.067 349.63 118.2C348.296 118.467 347.463 118.6 347.13 118.6C346.796 118.533 346.396 118.3 345.93 117.9C344.73 117.033 344.196 116.1 344.33 115.1C344.53 114.033 345.363 113.233 346.83 112.7C348.163 112.167 350.23 111.767 353.03 111.5C355.83 111.167 359.13 110.933 362.93 110.8L367.93 110.7C368.863 110.633 369.596 110.7 370.13 110.9C370.663 111.1 371.096 111.367 371.43 111.7C372.763 113.233 372.896 114.533 371.83 115.6C371.496 115.867 370.963 116.067 370.23 116.2C369.563 116.267 368.13 116.367 365.93 116.5L360.63 116.8L359.93 119.6C359.53 121.533 358.996 122.833 358.33 123.5C357.863 123.967 357.23 125.133 356.43 127C355.696 128.8 354.863 131.133 353.93 134C352.996 136.867 351.963 140.167 350.83 143.9C349.763 147.633 348.63 151.667 347.43 156C346.296 160.267 345.163 164.767 344.03 169.5C342.896 174.167 341.796 178.867 340.73 183.6C340.33 185.267 339.963 186.9 339.63 188.5C339.296 190.1 338.996 191.567 338.73 192.9C338.53 194.167 338.33 195.233 338.13 196.1C337.996 197.033 337.93 197.6 337.93 197.8C337.93 197.867 338.263 197.933 338.93 198C339.663 198.067 340.53 198.133 341.53 198.2C342.53 198.267 343.43 198.367 344.23 198.5C345.096 198.633 345.663 198.767 345.93 198.9C346.996 199.433 347.663 200.133 347.93 201C348.196 201.933 348.03 202.833 347.43 203.7C347.296 203.9 347.163 204.067 347.03 204.2C346.896 204.333 346.696 204.4 346.43 204.4C346.23 204.467 345.896 204.467 345.43 204.4C344.963 204.4 344.296 204.367 343.43 204.3C342.496 204.233 341.363 204.2 340.03 204.2C338.763 204.267 337.43 204.333 336.03 204.4C334.63 204.533 333.263 204.667 331.93 204.8C330.596 204.933 329.463 205.1 328.53 205.3C327.863 205.433 327.196 205.533 326.53 205.6C325.93 205.733 325.496 205.767 325.23 205.7C324.696 205.633 324.23 205.4 323.83 205C323.43 204.6 323.13 204.133 322.93 203.6C322.796 203.133 322.763 202.633 322.83 202.1C322.896 201.567 323.13 201.1 323.53 200.7C323.73 200.5 324.063 200.267 324.53 200C324.996 199.8 325.53 199.6 326.13 199.4C326.796 199.267 327.463 199.133 328.13 199C328.796 198.867 329.396 198.8 329.93 198.8C330.263 198.8 330.53 198.767 330.73 198.7C330.93 198.7 331.096 198.567 331.23 198.3C331.363 198.1 331.463 197.7 331.53 197.1C331.663 196.5 331.796 195.633 331.93 194.5C332.063 193.367 332.363 191.633 332.83 189.3C333.296 186.9 333.863 184.167 334.53 181.1C335.196 178.033 335.93 174.767 336.73 171.3C337.596 167.767 338.43 164.3 339.23 160.9C340.096 157.5 340.896 154.267 341.63 151.2C342.43 148.133 343.13 145.533 343.73 143.4ZM419.602 129.9C420.802 133.567 421.302 137.333 421.102 141.2C420.902 145.067 420.402 149.067 419.602 153.2C418.268 160.333 416.435 167.033 414.102 173.3C411.768 179.567 409.102 185.167 406.102 190.1C403.168 194.967 400.002 199 396.602 202.2C393.202 205.467 389.768 207.633 386.302 208.7C384.702 209.167 382.935 209.367 381.002 209.3C379.068 209.3 377.368 209.033 375.902 208.5C374.302 207.9 373.002 207.267 372.002 206.6C371.068 206 369.968 205.033 368.702 203.7C366.235 200.967 364.335 197.233 363.002 192.5C361.735 187.7 361.268 182.6 361.602 177.2C361.935 171.6 362.735 166 364.002 160.4C365.335 154.733 367.035 149.3 369.102 144.1C371.168 138.833 373.568 133.933 376.302 129.4C379.102 124.8 382.168 120.8 385.502 117.4C387.768 114.933 389.768 113.7 391.502 113.7C392.502 113.7 393.468 114.1 394.402 114.9C394.735 115.233 395.002 115.567 395.202 115.9C395.468 116.233 395.635 116.467 395.702 116.6C395.835 116.867 395.968 117 396.102 117C396.302 116.933 396.702 116.767 397.302 116.5C397.768 116.3 398.368 116.167 399.102 116.1C399.835 116.033 400.602 116 401.402 116C402.268 116 403.102 116.033 403.902 116.1C404.768 116.167 405.568 116.3 406.302 116.5C409.702 117.433 412.435 118.967 414.502 121.1C416.635 123.167 418.335 126.1 419.602 129.9ZM413.202 151.7C413.535 150.167 413.802 148.533 414.002 146.8C414.202 145.067 414.335 143.4 414.402 141.8C414.468 140.133 414.468 138.6 414.402 137.2C414.335 135.733 414.202 134.567 414.002 133.7C413.068 129.833 411.835 127.033 410.302 125.3C408.835 123.567 406.702 122.467 403.902 122C401.168 121.6 399.368 122.033 398.502 123.3C398.302 123.567 398.035 123.833 397.702 124.1C397.435 124.3 397.135 124.467 396.802 124.6C396.268 124.867 395.702 124.967 395.102 124.9C394.568 124.767 394.068 124.533 393.602 124.2C393.202 123.867 392.868 123.467 392.602 123C392.335 122.467 392.268 121.933 392.402 121.4C392.535 120.8 392.468 120.533 392.202 120.6C391.735 120.6 390.768 121.467 389.302 123.2C384.102 129.333 379.768 136.6 376.302 145C372.835 153.333 370.435 162.167 369.102 171.5C368.902 173.1 368.768 174.833 368.702 176.7C368.635 178.567 368.602 180.433 368.602 182.3C368.668 184.1 368.768 185.833 368.902 187.5C369.102 189.1 369.368 190.433 369.702 191.5C371.035 196.567 373.102 200 375.902 201.8C378.768 203.6 382.002 203.633 385.602 201.9C388.402 200.567 391.168 198.333 393.902 195.2C396.635 192.067 399.202 188.3 401.602 183.9C404.068 179.433 406.302 174.467 408.302 169C410.302 163.533 411.935 157.767 413.202 151.7ZM454.426 190C454.426 189.533 454.692 187.767 455.226 184.7C455.826 181.633 456.559 177.933 457.426 173.6C458.359 169.2 459.359 164.467 460.426 159.4C461.559 154.267 462.659 149.433 463.726 144.9C464.192 142.833 464.592 141.067 464.926 139.6C465.259 138.067 465.392 137.267 465.326 137.2C465.259 137.133 465.026 137.333 464.626 137.8C464.292 138.267 463.892 138.833 463.426 139.5C462.959 140.1 462.492 140.767 462.026 141.5C461.559 142.233 461.192 142.833 460.926 143.3C460.526 144.167 459.959 144.8 459.226 145.2C458.492 145.6 457.826 145.733 457.226 145.6C456.559 145.333 455.959 144.867 455.426 144.2C454.892 143.533 454.659 142.867 454.726 142.2C454.726 141.4 455.059 140.4 455.726 139.2C456.459 137.933 457.726 136.1 459.526 133.7C461.259 131.5 462.792 129.7 464.126 128.3C465.459 126.9 466.492 126.033 467.226 125.7C467.959 125.367 468.726 125.333 469.526 125.6C470.326 125.8 471.026 126.233 471.626 126.9C472.159 127.433 472.459 127.933 472.526 128.4C472.659 128.8 472.726 129.767 472.726 131.3C472.726 132.233 472.659 133.167 472.526 134.1C472.392 134.967 472.126 136.367 471.726 138.3C471.392 140.167 470.859 142.767 470.126 146.1C469.459 149.367 468.492 153.833 467.226 159.5C466.826 161.633 466.359 163.867 465.826 166.2C465.359 168.533 464.892 170.8 464.426 173C463.959 175.133 463.526 177.133 463.126 179C462.726 180.867 462.426 182.4 462.226 183.6C461.759 185.933 461.359 187.767 461.026 189.1C460.692 190.433 460.359 191.433 460.026 192.1C459.759 192.767 459.459 193.2 459.126 193.4C458.792 193.533 458.326 193.6 457.726 193.6C456.926 193.6 456.226 193.2 455.626 192.4C454.826 191.667 454.426 190.867 454.426 190ZM488.374 194.3C486.841 195.033 485.174 195.5 483.374 195.7C481.641 195.9 480.141 195.767 478.874 195.3C476.674 194.5 474.874 193.2 473.474 191.4C472.141 189.533 471.008 187 470.074 183.8C469.808 182.8 469.608 181.7 469.474 180.5C469.408 179.233 469.374 177.3 469.374 174.7C469.374 173.3 469.374 172.1 469.374 171.1C469.441 170.1 469.508 169.2 469.574 168.4C469.641 167.6 469.741 166.833 469.874 166.1C470.074 165.3 470.274 164.367 470.474 163.3C471.474 158.7 472.808 154.3 474.474 150.1C476.208 145.833 478.141 142 480.274 138.6C482.408 135.2 484.674 132.367 487.074 130.1C489.474 127.767 491.874 126.267 494.274 125.6C494.808 125.4 495.374 125.267 495.974 125.2C496.574 125.067 497.141 124.967 497.674 124.9C500.141 124.833 502.341 125.5 504.274 126.9C506.208 128.233 507.774 130.167 508.974 132.7C510.308 135.567 511.041 139.067 511.174 143.2C511.374 147.267 511.041 151.6 510.174 156.2C509.374 160.8 508.074 165.433 506.274 170.1C504.541 174.7 502.408 178.967 499.874 182.9C499.141 184.033 498.274 185.2 497.274 186.4C496.274 187.6 495.241 188.733 494.174 189.8C493.174 190.8 492.141 191.7 491.074 192.5C490.074 193.3 489.174 193.9 488.374 194.3ZM476.074 173.8C475.941 177.933 476.208 181.3 476.874 183.9C477.541 186.5 478.574 188.233 479.974 189.1C480.708 189.5 481.408 189.733 482.074 189.8C482.741 189.8 483.541 189.567 484.474 189.1C487.074 187.9 489.708 185.567 492.374 182.1C495.041 178.567 497.441 174.367 499.574 169.5C501.108 165.833 502.308 162.1 503.174 158.3C504.041 154.5 504.541 150.933 504.674 147.6C504.874 144.2 504.708 141.167 504.174 138.5C503.641 135.833 502.741 133.767 501.474 132.3C501.008 131.767 500.608 131.433 500.274 131.3C499.941 131.167 499.474 131.1 498.874 131.1C497.341 131.1 495.674 131.767 493.874 133.1C492.141 134.367 490.408 136.133 488.674 138.4C486.941 140.6 485.274 143.2 483.674 146.2C482.074 149.133 480.708 152.3 479.574 155.7C478.441 159.033 477.608 162.1 477.074 164.9C476.541 167.633 476.208 170.6 476.074 173.8ZM515.656 190C515.656 189.533 515.923 187.767 516.456 184.7C517.056 181.633 517.79 177.933 518.656 173.6C519.59 169.2 520.59 164.467 521.656 159.4C522.79 154.267 523.89 149.433 524.956 144.9C525.423 142.833 525.823 141.067 526.156 139.6C526.49 138.067 526.623 137.267 526.556 137.2C526.49 137.133 526.256 137.333 525.856 137.8C525.523 138.267 525.123 138.833 524.656 139.5C524.19 140.1 523.723 140.767 523.256 141.5C522.79 142.233 522.423 142.833 522.156 143.3C521.756 144.167 521.19 144.8 520.456 145.2C519.723 145.6 519.056 145.733 518.456 145.6C517.79 145.333 517.19 144.867 516.656 144.2C516.123 143.533 515.89 142.867 515.956 142.2C515.956 141.4 516.29 140.4 516.956 139.2C517.69 137.933 518.956 136.1 520.756 133.7C522.49 131.5 524.023 129.7 525.356 128.3C526.69 126.9 527.723 126.033 528.456 125.7C529.19 125.367 529.956 125.333 530.756 125.6C531.556 125.8 532.256 126.233 532.856 126.9C533.39 127.433 533.69 127.933 533.756 128.4C533.89 128.8 533.956 129.767 533.956 131.3C533.956 132.233 533.89 133.167 533.756 134.1C533.623 134.967 533.356 136.367 532.956 138.3C532.623 140.167 532.09 142.767 531.356 146.1C530.69 149.367 529.723 153.833 528.456 159.5C528.056 161.633 527.59 163.867 527.056 166.2C526.59 168.533 526.123 170.8 525.656 173C525.19 175.133 524.756 177.133 524.356 179C523.956 180.867 523.656 182.4 523.456 183.6C522.99 185.933 522.59 187.767 522.256 189.1C521.923 190.433 521.59 191.433 521.256 192.1C520.99 192.767 520.69 193.2 520.356 193.4C520.023 193.533 519.556 193.6 518.956 193.6C518.156 193.6 517.456 193.2 516.856 192.4C516.056 191.667 515.656 190.867 515.656 190Z" fill="#FF0000"/>
</g>
</g>
<defs>
<filter id="filter0_d_1_16" x="40.4" y="92.7" width="509.556" height="136.7" filterUnits="userSpaceOnUse" color-interpolation-filters="sRGB">
<feFlood flood-opacity="0" result="BackgroundImageFix"/>
<feColorMatrix in="SourceAlpha" type="matrix" values="0 0 0 0 0 0 0 0 0 0 0 0 0 0 0 0 0 0 127 0" result="hardAlpha"/>
<feOffset dy="4"/>
<feGaussianBlur stdDeviation="8"/>
<feComposite in2="hardAlpha" operator="out"/>
<feColorMatrix type="matrix" values="0 0 0 0 0 0 0 0 0 0 0 0 0 0 0 0 0 0 0.25 0"/>
<feBlend mode="normal" in2="BackgroundImageFix" result="effect1_dropShadow_1_16"/>
<feBlend mode="normal" in="SourceGraphic" in2="effect1_dropShadow_1_16" result="shape"/>
</filter>
<clipPath id="clip0_1_16">
<rect width="589" height="228" fill="white"/>
</clipPath>
</defs>
</svg>
